<svg width="40" height="40" viewBox="0 0 40 40" fill="none" xmlns="http://www.w3.org/2000/svg">
<path d="M14.4993 10.9991C14.4993 10.734 14.6046 10.4796 14.7921 10.2921C14.9796 10.1046 15.234 9.99927 15.4991 9.99927H25.4979C25.7631 9.99927 26.0174 10.1046 26.2049 10.2921C26.3924 10.4796 26.4978 10.734 26.4978 10.9991C26.4978 11.2643 26.3924 11.5186 26.2049 11.7062C26.0174 11.8937 25.7631 11.999 25.4979 11.999H15.4991C15.234 11.999 14.9796 11.8937 14.7921 11.7062C14.6046 11.5186 14.4993 11.2643 14.4993 10.9991ZM17.4989 13.9988C17.2337 13.9988 16.9794 14.1041 16.7919 14.2916C16.6044 14.4791 16.499 14.7335 16.499 14.9986C16.499 15.2638 16.6044 15.5181 16.7919 15.7057C16.9794 15.8932 17.2337 15.9985 17.4989 15.9985H23.4981C23.7633 15.9985 24.0176 15.8932 24.2052 15.7057C24.3927 15.5181 24.498 15.2638 24.498 14.9986C24.498 14.7335 24.3927 14.4791 24.2052 14.2916C24.0176 14.1041 23.7633 13.9988 23.4981 13.9988H17.4989Z" fill="#00467A"/>
<path fill-rule="evenodd" clip-rule="evenodd" d="M8.5 6.99962C8.5 6.20407 8.81603 5.44111 9.37857 4.87857C9.94111 4.31603 10.7041 4 11.4996 4H29.4974C30.2929 4 31.0559 4.31603 31.6184 4.87857C32.181 5.44111 32.497 6.20407 32.497 6.99962V26.9971C32.497 28.089 31.9131 29.0369 31.0412 29.5768L30.7592 30.4227C30.4177 31.4482 30.4177 32.5568 30.7592 33.5823L30.8992 34.0002H31.4991C31.7643 34.0002 32.0186 34.1056 32.2061 34.2931C32.3937 34.4806 32.499 34.7349 32.499 35.0001C32.499 35.2653 32.3937 35.5196 32.2061 35.7071C32.0186 35.8947 31.7643 36 31.4991 36H12.4995C10.2998 36 8.5 34.2102 8.5 32.0005V7.00362V6.99962ZM29.4974 5.99975H11.4996C11.2344 5.99975 10.9801 6.10509 10.7926 6.29261C10.6051 6.48012 10.4998 6.73444 10.4998 6.99962V28.5969C11.0877 28.257 11.7716 28.061 12.4995 28.061H29.4974C29.7626 28.061 30.0169 27.9556 30.2044 27.7681C30.3919 27.5806 30.4972 27.3263 30.4972 27.0611V7.06362C30.4972 6.79843 30.3919 6.54411 30.2044 6.3566C30.0169 6.16909 29.7626 6.06374 29.4974 6.06374V5.99975ZM28.7935 29.9967H12.4955C11.9651 29.9967 11.4565 30.2074 11.0815 30.5825C10.7064 30.9575 10.4958 31.4661 10.4958 31.9965C10.4958 32.5269 10.7064 33.0355 11.0815 33.4105C11.4565 33.7856 11.9651 33.9962 12.4955 33.9962H28.7935C28.4044 32.6915 28.4044 31.3015 28.7935 29.9967Z" fill="#00467A"/>
</svg>
